<svg width="12" height="13" viewBox="0 0 12 13" fill="none" xmlns="http://www.w3.org/2000/svg">
<path d="M8.00373 9.02832L9.03747 7.99459C9.1767 7.85708 9.35286 7.76296 9.54455 7.72363C9.73624 7.68431 9.93523 7.70149 10.1174 7.77307L11.3772 8.27609C11.5613 8.3508 11.7191 8.47831 11.8308 8.64256C11.9425 8.80681 12.003 9.00045 12.0048 9.19907V11.5065C12.0038 11.6416 11.9754 11.7751 11.9213 11.899C11.8673 12.0228 11.7888 12.1345 11.6905 12.2272C11.5922 12.3199 11.4761 12.3917 11.3493 12.4384C11.2225 12.485 11.0876 12.5056 10.9526 12.4987C2.12438 11.9495 0.343032 4.47343 0.00614585 1.61221C-0.00949264 1.4717 0.00479583 1.32947 0.0480712 1.19489C0.0913466 1.0603 0.162628 0.936399 0.257226 0.831338C0.351825 0.726277 0.467596 0.642436 0.596923 0.585331C0.726251 0.528226 0.866204 0.499151 1.00758 0.500019H3.23656C3.43547 0.500608 3.62965 0.56069 3.79413 0.672537C3.95861 0.784384 4.08587 0.942881 4.15954 1.12764L4.66256 2.38751C4.73652 2.5689 4.75538 2.76807 4.71681 2.96013C4.67823 3.15218 4.58392 3.32862 4.44566 3.46739L3.41193 4.50112C3.41193 4.50112 4.00725 8.52991 8.00373 9.02832Z" fill="#A3C4C1"/>
</svg>
