<svg width="16" height="13" viewBox="0 0 16 13" fill="none" xmlns="http://www.w3.org/2000/svg">
<path d="M3.00488 0.5C2.20923 0.5 1.44617 0.816071 0.883562 1.37868C0.320953 1.94129 0.00488281 2.70435 0.00488281 3.5V9.5C0.00488281 10.2956 0.320953 11.0587 0.883562 11.6213C1.44617 12.1839 2.20923 12.5 3.00488 12.5H13.0049C13.8005 12.5 14.5636 12.1839 15.1262 11.6213C15.6888 11.0587 16.0049 10.2956 16.0049 9.5V3.5C16.0049 2.70435 15.6888 1.94129 15.1262 1.37868C14.5636 0.816071 13.8005 0.5 13.0049 0.5H3.00488ZM2.00488 3.5C2.00488 3.23478 2.11024 2.98043 2.29778 2.79289C2.48531 2.60536 2.73967 2.5 3.00488 2.5H13.0049C13.2701 2.5 13.5245 2.60536 13.712 2.79289C13.8995 2.98043 14.0049 3.23478 14.0049 3.5V3.84L8.00488 6.412L2.00488 3.84V3.5ZM2.00488 6.016L7.61088 8.418C7.73538 8.47137 7.86943 8.49889 8.00488 8.49889C8.14034 8.49889 8.27438 8.47137 8.39888 8.418L14.0049 6.016V9.5C14.0049 9.76522 13.8995 10.0196 13.712 10.2071C13.5245 10.3946 13.2701 10.5 13.0049 10.5H3.00488C2.73967 10.5 2.48531 10.3946 2.29778 10.2071C2.11024 10.0196 2.00488 9.76522 2.00488 9.5V6.016Z" fill="#A3C4C1"/>
</svg>
