<svg width="18" height="16" viewBox="0 0 18 16" fill="none" xmlns="http://www.w3.org/2000/svg">
<path d="M16.8429 6.32019L16.8332 6.36873V6.40089L16.7898 6.42257L16.734 6.47702L13.3173 9.81035L13.1284 9.99467L13.174 10.2546L14.0069 15.0021C14.0405 15.2085 13.9177 15.3695 13.7716 15.4182H13.7714H13.7711H13.7708H13.7705H13.7703H13.77H13.7697H13.7695H13.7692H13.7689H13.7687H13.7684H13.7681H13.7679H13.7676H13.7674H13.7671H13.7668H13.7666H13.7663H13.766H13.7658H13.7655H13.7653H13.765H13.7648H13.7645H13.7642H13.764H13.7637H13.7635H13.7632H13.763H13.7627H13.7625H13.7622H13.7619H13.7617H13.7614H13.7612H13.7609H13.7607H13.7604H13.7602H13.7599H13.7597H13.7594H13.7592H13.7589H13.7587H13.7584H13.7582H13.7579H13.7577H13.7574H13.7572H13.7569H13.7567H13.7565H13.7562H13.756H13.7557H13.7555H13.7552H13.755H13.7547H13.7545H13.7542H13.754H13.7537H13.7535H13.7533H13.753H13.7528H13.7525H13.7523H13.752H13.7518H13.7515H13.7513H13.7511H13.7508H13.7506H13.7503H13.7501H13.7498H13.7496H13.7493H13.7491H13.7489H13.7486H13.7484H13.7481H13.7479H13.7476H13.7474H13.7472H13.7469H13.7467H13.7464H13.7462H13.7459H13.7457H13.7454H13.7452H13.7449H13.7447H13.7445H13.7442H13.744H13.7437H13.7435H13.7432H13.743H13.7427H13.7425H13.7422H13.742H13.7417H13.7415H13.7412H13.741H13.7407H13.7405H13.7402H13.74H13.7397H13.7395H13.7392H13.739H13.7387H13.7385H13.7382H13.738H13.7377H13.7375H13.7372H13.737H13.7367H13.7365H13.7362H13.7359H13.7357H13.7354H13.7352H13.7349H13.7347H13.7344H13.7341H13.7339H13.7336H13.7334H13.7331H13.7328H13.7326H13.7323H13.7321H13.7318H13.7315H13.7313H13.731H13.7307H13.7305H13.7302H13.7299H13.7297H13.7294H13.7291H13.7289H13.7286H13.7283H13.7281H13.7278H13.7275H13.7272H13.727H13.7267H13.7264H13.7261H13.7259H13.7256H13.7253H13.725H13.7247H13.7245H13.7242H13.7239H13.7236H13.7233H13.7231H13.7228H13.7225H13.7222H13.7219H13.7216H13.7213H13.721H13.7207H13.7205H13.7202H13.7199H13.7196H13.7193H13.719H13.7187H13.7184H13.7181H13.7178H13.7175H13.7172H13.7169H13.7166H13.7163H13.716H13.7157H13.7154H13.7151H13.7148H13.7144H13.7141H13.7138H13.7135H13.7132H13.7129H13.7126H13.7123H13.7119H13.7116H13.7113H13.711H13.7107H13.7103H13.71H13.7097H13.7094H13.709H13.7087H13.7084H13.708H13.7077H13.7074H13.707H13.7067H13.7064H13.706H13.7057H13.7053H13.705H13.7047H13.7043H13.704H13.7036H13.7033H13.7029H13.7026H13.7022H13.7019H13.7015H13.7012H13.7008H13.7005H13.7001H13.6997H13.6994H13.699H13.6987H13.6983H13.6979H13.6975H13.6972H13.6968H13.6964H13.6961H13.6957H13.6953H13.6949H13.6946H13.6942H13.6938H13.6934H13.693H13.6926H13.6922H13.6919H13.6915H13.6911H13.6907H13.6903H13.6899H13.6895H13.6891H13.6887H13.6883H13.6879H13.6875H13.6871H13.6867H13.6862H13.6858H13.6854H13.685H13.6846H13.6842H13.6838H13.6833H13.6829H13.6825H13.6821H13.6816H13.6812H13.6808H13.6803H13.6799H13.6795H13.679H13.6786H13.6781H13.6777H13.6772H13.6768H13.6763H13.6759H13.6754H13.675H13.6745H13.6741H13.6736H13.6732H13.6727H13.6722H13.6718H13.6713H13.6708H13.6704H13.6699H13.6694H13.6689H13.6684H13.668H13.6675H13.667H13.6665C13.6233 15.4182 13.5898 15.4182 13.5589 15.4172C13.5463 15.4168 13.5356 15.4163 13.5266 15.4157L13.4838 15.393L9.23378 13.143L8.99984 13.0192L8.76589 13.143L4.51589 15.393L4.50407 15.3993L4.49259 15.4062C4.35355 15.4896 4.15482 15.4642 4.0235 15.2628C4.00735 15.2234 4.00104 15.1725 4 15.0442L4.82565 10.338L4.87126 10.078L4.68233 9.89368L1.26828 6.56291C1.13199 6.42504 1.13258 6.24261 1.27006 6.10513L1.32743 6.04776L1.34807 6.00649C1.36235 6.00401 1.3845 6.00158 1.4165 6.00158H1.45142L1.486 5.99672L6.236 5.33006L6.50113 5.29285L6.61713 5.05156L8.68894 0.742201C8.82025 0.539062 9.01979 0.513307 9.15926 0.596989L9.17572 0.606869L9.1929 0.615457C9.24539 0.641702 9.25841 0.65475 9.26078 0.657125L9.26087 0.657213L9.26095 0.657299C9.26333 0.659668 9.27637 0.672687 9.30262 0.725182L9.74719 0.502899L9.30262 0.725183L11.4693 5.05852L11.5868 5.29354L11.847 5.33006L16.597 5.99672L16.6316 6.00158H16.6665C16.667 6.00158 16.7179 6.00563 16.7789 6.092C16.8392 6.17756 16.8531 6.26928 16.8429 6.32019Z" fill="#F2A742" stroke="#D27D39"/>
</svg>
