<svg width="16" height="16" viewBox="0 0 16 16" fill="none" xmlns="http://www.w3.org/2000/svg">
<path d="M15.0097 6.47641L15 6.52496V6.52795L14.9817 6.53712L14.9258 6.59157L11.8508 9.59157L11.6619 9.77589L11.7075 10.0359L12.4571 14.3083C12.4824 14.4651 12.392 14.5852 12.2861 14.6245H12.2859H12.2857H12.2854H12.2852H12.285H12.2848H12.2845H12.2843H12.2841H12.2839H12.2836H12.2834H12.2832H12.283H12.2827H12.2825H12.2823H12.2821H12.2818H12.2816H12.2814H12.2812H12.281H12.2807H12.2805H12.2803H12.2801H12.2798H12.2796H12.2794H12.2792H12.279H12.2787H12.2785H12.2783H12.2781H12.2779H12.2776H12.2774H12.2772H12.277H12.2768H12.2765H12.2763H12.2761H12.2759H12.2757H12.2754H12.2752H12.275H12.2748H12.2746H12.2743H12.2741H12.2739H12.2737H12.2735H12.2732H12.273H12.2728H12.2726H12.2724H12.2721H12.2719H12.2717H12.2715H12.2713H12.271H12.2708H12.2706H12.2704H12.2702H12.2699H12.2697H12.2695H12.2693H12.269H12.2688H12.2686H12.2684H12.2682H12.2679H12.2677H12.2675H12.2673H12.267H12.2668H12.2666H12.2664H12.2661H12.2659H12.2657H12.2655H12.2652H12.265H12.2648H12.2646H12.2643H12.2641H12.2639H12.2636H12.2634H12.2632H12.263H12.2627H12.2625H12.2623H12.262H12.2618H12.2616H12.2613H12.2611H12.2609H12.2606H12.2604H12.2602H12.2599H12.2597H12.2595H12.2592H12.259H12.2588H12.2585H12.2583H12.258H12.2578H12.2576H12.2573H12.2571H12.2568H12.2566H12.2564H12.2561H12.2559H12.2556H12.2554H12.2551H12.2549H12.2547H12.2544H12.2542H12.2539H12.2537H12.2534H12.2532H12.2529H12.2527H12.2524H12.2522H12.2519H12.2517H12.2514H12.2511H12.2509H12.2506H12.2504H12.2501H12.2499H12.2496H12.2493H12.2491H12.2488H12.2486H12.2483H12.248H12.2478H12.2475H12.2472H12.247H12.2467H12.2464H12.2462H12.2459H12.2456H12.2454H12.2451H12.2448H12.2445H12.2443H12.244H12.2437H12.2434H12.2431H12.2429H12.2426H12.2423H12.242H12.2417H12.2415H12.2412H12.2409H12.2406H12.2403H12.24H12.2397H12.2394H12.2392H12.2389H12.2386H12.2383H12.238H12.2377H12.2374H12.2371H12.2368H12.2365H12.2362H12.2359H12.2356H12.2353H12.235H12.2347H12.2343H12.234H12.2337H12.2334H12.2331H12.2328H12.2325H12.2322H12.2318H12.2315H12.2312H12.2309H12.2306H12.2302H12.2299H12.2296H12.2293H12.2289H12.2286H12.2283H12.2279H12.2276H12.2273H12.2269H12.2266H12.2263H12.2259H12.2256H12.2252H12.2249H12.2246H12.2242H12.2239H12.2235H12.2232H12.2228H12.2225H12.2221H12.2218H12.2214H12.221H12.2207H12.2203H12.22H12.2196H12.2192H12.2189H12.2185H12.2181H12.2178H12.2174H12.217H12.2167H12.2163H12.2159H12.2155H12.2151H12.2148H12.2144H12.214H12.2136H12.2132H12.2128H12.2124H12.212H12.2117H12.2113H12.2109H12.2105H12.2101H12.2097H12.2093H12.2089H12.2085H12.208H12.2076H12.2072H12.2068H12.2064H12.206H12.2056H12.2052H12.2047H12.2043H12.2039H12.2035H12.203H12.2026H12.2022H12.2017H12.2013H12.2009H12.2004H12.2C12.161 14.6245 12.1317 14.6244 12.1048 14.6236C12.0985 14.6234 12.0929 14.6231 12.0878 14.6229L12.0589 14.6076L8.23394 12.5826L8 12.4587L7.76606 12.5826L3.94106 14.6076L3.92923 14.6138L3.91775 14.6207C3.8546 14.6586 3.79439 14.6626 3.73742 14.6456C3.68076 14.6286 3.61646 14.5863 3.56581 14.5112C3.55638 14.4855 3.55122 14.4467 3.55019 14.3419L4.29248 10.1109L4.33809 9.85089L4.14916 9.66657L1.07685 6.6692C0.973819 6.56472 0.974386 6.43219 1.07855 6.32802L1.13593 6.27065L1.14605 6.2504C1.15416 6.24983 1.16377 6.24947 1.175 6.24947H1.20992L1.24449 6.24461L5.51949 5.64461L5.78462 5.6074L5.90063 5.36611L7.76371 1.4909C7.81468 1.41383 7.87997 1.37061 7.93742 1.35338C7.99439 1.33629 8.0546 1.34032 8.11775 1.37821L8.13422 1.38809L8.15139 1.39668C8.18474 1.41335 8.19684 1.42254 8.19958 1.42488C8.20192 1.42762 8.21111 1.43972 8.22779 1.47307L10.1778 5.37307L10.2953 5.60809L10.5555 5.64461L14.8305 6.24461L14.8651 6.24947H14.8948C14.9001 6.25122 14.9261 6.26135 14.9603 6.30968C14.9814 6.33958 14.997 6.37404 15.0052 6.40721C15.0134 6.4404 15.0122 6.46393 15.0097 6.47641Z" stroke="#D27D39"/>
</svg>
