<svg width="16" height="16" viewBox="0 0 16 16" fill="none" xmlns="http://www.w3.org/2000/svg">
<path d="M11.3333 0.5C12.4384 0.5 13.4982 0.938987 14.2796 1.72039C15.061 2.50179 15.5 3.5616 15.5 4.66667V11.3333C15.5 12.4384 15.061 13.4982 14.2796 14.2796C13.4982 15.061 12.4384 15.5 11.3333 15.5H4.66667C3.5616 15.5 2.50179 15.061 1.72039 14.2796C0.938987 13.4982 0.5 12.4384 0.5 11.3333V4.66667C0.5 3.5616 0.938987 2.50179 1.72039 1.72039C2.50179 0.938987 3.5616 0.5 4.66667 0.5H11.3333ZM8 4.66667C7.11594 4.66667 6.2681 5.01786 5.64298 5.64298C5.01786 6.2681 4.66667 7.11594 4.66667 8C4.66667 8.88406 5.01786 9.7319 5.64298 10.357C6.2681 10.9821 7.11594 11.3333 8 11.3333C8.88406 11.3333 9.7319 10.9821 10.357 10.357C10.9821 9.7319 11.3333 8.88406 11.3333 8C11.3333 7.11594 10.9821 6.2681 10.357 5.64298C9.7319 5.01786 8.88406 4.66667 8 4.66667ZM8 6.33333C8.44203 6.33333 8.86595 6.50893 9.17851 6.82149C9.49107 7.13405 9.66667 7.55797 9.66667 8C9.66667 8.44203 9.49107 8.86595 9.17851 9.17851C8.86595 9.49107 8.44203 9.66667 8 9.66667C7.55797 9.66667 7.13405 9.49107 6.82149 9.17851C6.50893 8.86595 6.33333 8.44203 6.33333 8C6.33333 7.55797 6.50893 7.13405 6.82149 6.82149C7.13405 6.50893 7.55797 6.33333 8 6.33333ZM11.75 3.41667C11.529 3.41667 11.317 3.50446 11.1607 3.66074C11.0045 3.81702 10.9167 4.02899 10.9167 4.25C10.9167 4.47101 11.0045 4.68298 11.1607 4.83926C11.317 4.99554 11.529 5.08333 11.75 5.08333C11.971 5.08333 12.183 4.99554 12.3393 4.83926C12.4955 4.68298 12.5833 4.47101 12.5833 4.25C12.5833 4.02899 12.4955 3.81702 12.3393 3.66074C12.183 3.50446 11.971 3.41667 11.75 3.41667Z" fill="#003F38"/>
</svg>
