<svg width="21" height="20" viewBox="0 0 21 20" fill="none" xmlns="http://www.w3.org/2000/svg">
<path d="M5.9165 7.91797H2.1665V18.3346H5.9165V7.91797Z" fill="#003F38"/>
<path d="M5.9165 3.54297C5.9165 4.5785 5.07704 5.41797 4.0415 5.41797C3.00597 5.41797 2.1665 4.5785 2.1665 3.54297C2.1665 2.50744 3.00597 1.66797 4.0415 1.66797C5.07704 1.66797 5.9165 2.50744 5.9165 3.54297Z" fill="#003F38"/>
<path d="M12.1666 7.91797H8.4165V18.3346H12.1666V13.1265C12.1666 12.3211 12.8194 11.6681 13.6248 11.6681C14.4303 11.6681 15.0832 12.3211 15.0832 13.1265V18.3346H18.8321L18.8333 11.6681C18.8333 9.59714 16.8635 7.91817 14.9138 7.91817C13.8039 7.91817 12.8138 8.46222 12.1666 9.31297V7.91797Z" fill="#003F38"/>
</svg>
