<svg width="19" height="16" viewBox="0 0 19 16" fill="none" xmlns="http://www.w3.org/2000/svg">
<path fill-rule="evenodd" clip-rule="evenodd" d="M5.08056 0.727752C6.46305 0.445935 7.95111 0.292969 9.49994 0.292969C11.0488 0.292969 12.5369 0.445935 13.9193 0.727752L14.0254 0.749352C15.6042 1.07071 16.6562 1.28484 17.5628 2.4504C18.4596 3.60345 18.4591 4.94064 18.4583 7.01164V8.99097C18.4591 11.062 18.4596 12.3991 17.5628 13.5522C16.6562 14.7178 15.6042 14.9319 14.0254 15.2532L13.9193 15.2749C12.5369 15.5566 11.0488 15.7096 9.49994 15.7096C7.95111 15.7096 6.46305 15.5566 5.08056 15.2749L4.97449 15.2532C3.39563 14.9319 2.34363 14.7178 1.43709 13.5522C0.540274 12.3991 0.540774 11.062 0.541549 8.99097V7.01164C0.540774 4.94064 0.540274 3.60345 1.43709 2.4504C2.34363 1.28484 3.39563 1.07071 4.97449 0.749352L5.08056 0.727752ZM8.91202 4.87817C9.34411 5.05952 9.86902 5.35266 10.5108 5.71108C10.5953 5.75825 10.6802 5.80512 10.7652 5.85204C11.1847 6.08362 11.6066 6.31655 11.9957 6.5963C12.3454 6.84772 12.6771 7.1593 12.7869 7.61372C12.8486 7.8688 12.8486 8.1338 12.7869 8.38889C12.6771 8.8433 12.3454 9.15489 11.9957 9.4063C11.6066 9.68605 11.1846 9.91905 10.7651 10.1506C10.6801 10.1976 10.5953 10.2444 10.5108 10.2916C9.86902 10.65 9.34419 10.9431 8.91202 11.1245C8.20952 11.4192 7.4646 11.4431 6.85234 10.9415C6.46914 10.6275 6.33368 10.1779 6.27425 9.72489C6.13062 8.62997 6.13056 7.37314 6.27425 6.27774C6.33368 5.82469 6.46914 5.37512 6.85234 5.06114C7.4646 4.55949 8.20952 4.58334 8.91202 4.87817Z" fill="#003F38"/>
</svg>
