<svg width="38" height="38" viewBox="0 0 38 38" fill="none" xmlns="http://www.w3.org/2000/svg">
<path d="M16.2145 21.7073H17.6991L16.9543 19.9831L16.2145 21.7073Z" fill="white"/>
<path fill-rule="evenodd" clip-rule="evenodd" d="M10.46 0.359375C2.86274 0.359375 0.0839844 3.12472 0.0839844 10.6851V26.8417C0.0839844 34.402 2.86274 37.1674 10.46 37.1674H26.6831C34.2801 37.1674 37.064 34.402 37.064 26.8417V10.6851C37.064 3.12472 34.2852 0.359375 26.688 0.359375H10.46ZM15.849 22.5761L15.4085 23.5793H14.4057L16.5382 18.7637H17.4049L19.5288 23.5793H18.4993L18.0644 22.5761H15.849ZM31.9859 23.5758H32.9551V18.7634H31.9859V23.5758ZM28.1283 21.5084H29.9149V20.631H28.1283V19.6447H30.7218V18.7669H27.1593V23.579H30.8151V22.7013H28.1283V21.5084ZM24.2772 22.077L23.1784 18.7634H22.3765L21.2777 22.077L20.2083 18.766H19.1626L20.8503 23.582H21.6632L22.7638 20.4186L23.8644 23.582H24.6844L26.3675 18.766H25.349L24.2772 22.077ZM12.9261 21.5218C12.9261 22.3051 12.5353 22.7237 11.8255 22.7237C11.1119 22.7237 10.7189 22.293 10.7189 21.4883V18.7666H9.73663V21.5218C9.73663 22.877 10.4934 23.6542 11.8121 23.6542C13.144 23.6542 13.9075 22.8622 13.9075 21.4815V18.7637H12.9261V21.5218ZM7.39306 18.7637H8.37477V23.5823H7.39306V21.6253H5.17521V23.5823H4.1929V18.7637H5.17521V20.7073H7.39306V18.7637ZM12.4107 6.49404C12.4107 9.87675 15.1752 12.6287 18.574 12.6287C21.9725 12.6287 24.7373 9.87675 24.7373 6.49404H23.8667C23.8667 9.39866 21.4922 11.7619 18.574 11.7619C15.6558 11.7619 13.2812 9.39866 13.2812 6.49404H12.4107Z" fill="white"/>
</svg>
