<svg width="18" height="19" viewBox="0 0 18 19" fill="none" xmlns="http://www.w3.org/2000/svg">
<g clip-path="url(#clip0_90_16857)">
<path d="M10.9598 5.1875H12.3865C12.7649 5.1875 13.1277 5.33781 13.3953 5.60536C13.6628 5.87291 13.8131 6.23579 13.8131 6.61417V12.3208C13.8131 12.6992 13.6628 13.0621 13.3953 13.3296C13.1277 13.5972 12.7649 13.7475 12.3865 13.7475H10.1109M3.82648 13.7475H2.39981C2.02144 13.7475 1.65856 13.5972 1.39101 13.3296C1.12345 13.0621 0.973145 12.6992 0.973145 12.3208V6.61417C0.973145 6.23579 1.12345 5.87291 1.39101 5.60536C1.65856 5.33781 2.02144 5.1875 2.39981 5.1875H4.67534L3.82648 13.7475Z" stroke="#37383C" stroke-width="0.856" stroke-linecap="round" stroke-linejoin="round"/>
<path d="M16.6665 10.1806V8.75391" stroke="#37383C" stroke-width="0.856" stroke-linecap="round" stroke-linejoin="round"/>
<path d="M8.10626 5.1875L5.25293 9.4675H9.53293L6.6796 13.7475" stroke="#37383C" stroke-width="0.856" stroke-linecap="round" stroke-linejoin="round"/>
</g>
<defs>
<clipPath id="clip0_90_16857">
<rect width="17.12" height="17.12" fill="white" transform="translate(0.259766 0.90625)"/>
</clipPath>
</defs>
</svg>
