<svg width="38" height="38" viewBox="0 0 38 38" fill="none" xmlns="http://www.w3.org/2000/svg">
<path d="M8.86081 3.67828C8.72476 3.50328 8.55304 3.35923 8.35704 3.25569C8.16105 3.15216 7.94526 3.09151 7.72403 3.07777C7.50279 3.06404 7.28116 3.09754 7.07387 3.17605C6.86657 3.25455 6.67835 3.37626 6.52171 3.5331L4.13882 5.91829C3.02573 7.03368 2.61553 8.61229 3.10178 9.99731C5.11995 15.73 8.40289 20.9348 12.7071 25.2257C16.9979 29.5298 22.2027 32.8127 27.9354 34.8309C29.3204 35.3172 30.899 34.907 32.0144 33.7939L34.3973 31.411C34.5542 31.2544 34.6759 31.0662 34.7544 30.8589C34.8329 30.6516 34.8664 30.4299 34.8526 30.2087C34.8389 29.9875 34.7783 29.7717 34.6747 29.5757C34.5712 29.3797 34.4271 29.208 34.2521 29.0719L28.9356 24.9376C28.7486 24.7926 28.5312 24.6919 28.2996 24.6432C28.0681 24.5945 27.8285 24.599 27.599 24.6564L22.552 25.917C21.8784 26.0854 21.1726 26.0765 20.5034 25.8911C19.8342 25.7057 19.2244 25.3502 18.7334 24.8592L13.0735 19.197C12.5821 18.7062 12.2262 18.0965 12.0404 17.4273C11.8546 16.7582 11.8453 16.0522 12.0134 15.3784L13.2763 10.3315C13.3337 10.1019 13.3382 9.86235 13.2895 9.6308C13.2408 9.39926 13.1401 9.1818 12.9951 8.99484L8.86081 3.67828ZM4.78179 1.79548C5.18507 1.39207 5.66956 1.07907 6.20308 0.877268C6.73661 0.675462 7.30696 0.589468 7.87627 0.624995C8.44558 0.660523 9.00082 0.816759 9.50511 1.08333C10.0094 1.3499 10.4512 1.7207 10.8012 2.17112L14.9356 7.48537C15.6937 8.46019 15.9611 9.72998 15.6615 10.9283L14.4009 15.9753C14.3357 16.2367 14.3392 16.5105 14.4111 16.7701C14.483 17.0298 14.6208 17.2664 14.8111 17.4571L20.4733 23.1193C20.6642 23.31 20.9013 23.448 21.1614 23.5199C21.4214 23.5918 21.6957 23.5951 21.9575 23.5295L27.0021 22.2689C27.5935 22.1211 28.2107 22.1096 28.8072 22.2354C29.4036 22.3611 29.9637 22.6208 30.445 22.9949L35.7593 27.1292C37.6698 28.6156 37.8449 31.4387 36.1349 33.1463L33.7521 35.5292C32.0467 37.2346 29.4979 37.9835 27.1219 37.147C21.0407 35.0073 15.5192 31.5259 10.9671 26.961C6.40254 22.4096 2.92113 16.8889 0.781121 10.8085C-0.0531196 8.43484 0.695853 5.88372 2.40121 4.17837L4.78409 1.79548H4.78179Z" fill="white"/>
</svg>
