<svg width="18" height="18" viewBox="0 0 18 18" fill="none" xmlns="http://www.w3.org/2000/svg">
<path d="M7.33341 3.66667H10.6667C10.6667 3.22464 10.4912 2.80072 10.1786 2.48816C9.86603 2.17559 9.44211 2 9.00008 2C8.55805 2 8.13413 2.17559 7.82157 2.48816C7.50901 2.80072 7.33341 3.22464 7.33341 3.66667ZM6.08341 3.66667C6.08341 3.28364 6.15886 2.90437 6.30543 2.55051C6.45201 2.19664 6.66685 1.87511 6.93769 1.60427C7.20852 1.33343 7.53006 1.11859 7.88392 0.972018C8.23779 0.825442 8.61706 0.75 9.00008 0.75C9.3831 0.75 9.76237 0.825442 10.1162 0.972018C10.4701 1.11859 10.7916 1.33343 11.0625 1.60427C11.3333 1.87511 11.5482 2.19664 11.6947 2.55051C11.8413 2.90437 11.9167 3.28364 11.9167 3.66667H16.7084C16.8742 3.66667 17.0331 3.73251 17.1504 3.84973C17.2676 3.96694 17.3334 4.12591 17.3334 4.29167C17.3334 4.45743 17.2676 4.6164 17.1504 4.73361C17.0331 4.85082 16.8742 4.91667 16.7084 4.91667H15.6084L14.6334 15.0092C14.5586 15.7825 14.1985 16.5002 13.6231 17.0224C13.0478 17.5445 12.2987 17.8336 11.5217 17.8333H6.47841C5.70163 17.8334 4.95266 17.5442 4.37754 17.0221C3.80241 16.4999 3.44236 15.7823 3.36758 15.0092L2.39175 4.91667H1.29175C1.12599 4.91667 0.967016 4.85082 0.849806 4.73361C0.732596 4.6164 0.666748 4.45743 0.666748 4.29167C0.666748 4.12591 0.732596 3.96694 0.849806 3.84973C0.967016 3.73251 1.12599 3.66667 1.29175 3.66667H6.08341ZM7.75008 7.625C7.75008 7.45924 7.68423 7.30027 7.56702 7.18306C7.44981 7.06585 7.29084 7 7.12508 7C6.95932 7 6.80035 7.06585 6.68314 7.18306C6.56593 7.30027 6.50008 7.45924 6.50008 7.625V13.875C6.50008 14.0408 6.56593 14.1997 6.68314 14.3169C6.80035 14.4342 6.95932 14.5 7.12508 14.5C7.29084 14.5 7.44981 14.4342 7.56702 14.3169C7.68423 14.1997 7.75008 14.0408 7.75008 13.875V7.625ZM10.8751 7C11.0408 7 11.1998 7.06585 11.317 7.18306C11.4342 7.30027 11.5001 7.45924 11.5001 7.625V13.875C11.5001 14.0408 11.4342 14.1997 11.317 14.3169C11.1998 14.4342 11.0408 14.5 10.8751 14.5C10.7093 14.5 10.5504 14.4342 10.4331 14.3169C10.3159 14.1997 10.2501 14.0408 10.2501 13.875V7.625C10.2501 7.45924 10.3159 7.30027 10.4331 7.18306C10.5504 7.06585 10.7093 7 10.8751 7ZM4.61175 14.8892C4.6567 15.353 4.87279 15.7835 5.21789 16.0968C5.56299 16.41 6.01237 16.5834 6.47841 16.5833H11.5217C11.9878 16.5834 12.4372 16.41 12.7823 16.0968C13.1274 15.7835 13.3435 15.353 13.3884 14.8892L14.3534 4.91667H3.64675L4.61175 14.8892Z" fill="#DC2626"/>
</svg>
