<svg width="18" height="18" viewBox="0 0 18 18" fill="none" xmlns="http://www.w3.org/2000/svg">
<g clip-path="url(#clip0_90_16855)">
<path d="M2.3999 2.19094C2.3999 1.76527 2.569 1.35703 2.87 1.05603C3.17099 0.755035 3.57923 0.585938 4.0049 0.585938L11.5869 0.585938C12.0125 0.586312 12.4204 0.755656 12.7211 1.05674L14.7702 3.10472C15.0709 3.4056 15.2398 3.81354 15.2399 4.23892V16.1009C15.2399 16.5266 15.0708 16.9348 14.7698 17.2358C14.4688 17.5368 14.0606 17.7059 13.6349 17.7059H4.0049C3.57923 17.7059 3.17099 17.5368 2.87 17.2358C2.569 16.9348 2.3999 16.5266 2.3999 16.1009V2.19094ZM4.0049 1.65594C3.86301 1.65594 3.72693 1.7123 3.6266 1.81264C3.52627 1.91297 3.4699 2.04905 3.4699 2.19094V16.1009C3.4699 16.2428 3.52627 16.3789 3.6266 16.4792C3.72693 16.5796 3.86301 16.6359 4.0049 16.6359H13.6349C13.7768 16.6359 13.9129 16.5796 14.0132 16.4792C14.1135 16.3789 14.1699 16.2428 14.1699 16.1009V4.23892C14.1699 4.0973 14.1137 3.96147 14.0137 3.86121L11.9646 1.81216C11.8644 1.71215 11.7285 1.65597 11.5869 1.65594H4.0049Z" fill="#37383C"/>
<path d="M6.14455 5.22234C6.00266 5.22234 5.86658 5.27871 5.76625 5.37904C5.66592 5.47937 5.60955 5.61545 5.60955 5.75734V7.36234H8.28455V5.22234H6.14455ZM9.35455 5.22234V7.36234H12.0296V5.75734C12.0296 5.61545 11.9732 5.47937 11.8729 5.37904C11.7725 5.27871 11.6364 5.22234 11.4946 5.22234H9.35455ZM12.0296 8.43234H5.60955V10.5723H12.0296V8.43234ZM12.0296 11.6423H9.35455V13.7823H11.4946C11.6364 13.7823 11.7725 13.726 11.8729 13.6256C11.9732 13.5253 12.0296 13.3892 12.0296 13.2473V11.6423ZM8.28455 13.7823V11.6423H5.60955V13.2473C5.60955 13.3892 5.66592 13.5253 5.76625 13.6256C5.86658 13.726 6.00266 13.7823 6.14455 13.7823H8.28455ZM4.53955 5.75734C4.53955 5.33167 4.70865 4.92343 5.00964 4.62244C5.31064 4.32144 5.71888 4.15234 6.14455 4.15234H11.4946C11.9202 4.15234 12.3285 4.32144 12.6295 4.62244C12.9305 4.92343 13.0996 5.33167 13.0996 5.75734V13.2473C13.0996 13.673 12.9305 14.0813 12.6295 14.3822C12.3285 14.6832 11.9202 14.8523 11.4946 14.8523H6.14455C5.71888 14.8523 5.31064 14.6832 5.00964 14.3822C4.70865 14.0813 4.53955 13.673 4.53955 13.2473V5.75734Z" fill="#37383C"/>
</g>
<defs>
<clipPath id="clip0_90_16855">
<rect width="17.12" height="17.12" fill="white" transform="translate(0.259766 0.585938)"/>
</clipPath>
</defs>
</svg>
