<svg width="18" height="14" viewBox="0 0 18 14" fill="none" xmlns="http://www.w3.org/2000/svg">
<path fill-rule="evenodd" clip-rule="evenodd" d="M6.67977 0.242188C6.78972 0.242234 6.89698 0.276156 6.98697 0.339336C7.07695 0.402517 7.14528 0.491888 7.18267 0.595287L10.9598 10.9807L12.5969 6.47815C12.6346 6.37515 12.7031 6.28624 12.793 6.22346C12.883 6.16068 12.9901 6.12707 13.0998 6.12719H16.8448C16.9867 6.12719 17.1227 6.18355 17.2231 6.28389C17.3234 6.38422 17.3798 6.5203 17.3798 6.66219C17.3798 6.80408 17.3234 6.94016 17.2231 7.04049C17.1227 7.14082 16.9867 7.19719 16.8448 7.19719H13.4743L11.4627 12.7291C11.4252 12.8324 11.3568 12.9216 11.2668 12.9847C11.1769 13.0477 11.0696 13.0816 10.9598 13.0816C10.8499 13.0816 10.7427 13.0477 10.6527 12.9847C10.5627 12.9216 10.4944 12.8324 10.4569 12.7291L6.67977 2.34367L5.04267 6.84516C5.00511 6.94836 4.9367 7.0375 4.84673 7.10048C4.75676 7.16346 4.64959 7.19722 4.53977 7.19719H0.794766C0.652875 7.19719 0.516795 7.14082 0.416464 7.04049C0.316132 6.94016 0.259766 6.80408 0.259766 6.66219C0.259766 6.5203 0.316132 6.38422 0.416464 6.28389C0.516795 6.18355 0.652875 6.12719 0.794766 6.12719H4.16527L6.17687 0.595287C6.21425 0.491888 6.28258 0.402517 6.37257 0.339336C6.46255 0.276156 6.56982 0.242234 6.67977 0.242188Z" fill="#37383C"/>
</svg>
