<svg width="34" height="34" viewBox="0 0 34 34" fill="none" xmlns="http://www.w3.org/2000/svg">
<path d="M3.74526 30.2553H0.799805V21.419H9.63617V24.3644H5.9838C8.35489 27.9137 12.4049 30.2553 16.9998 30.2553C20.5151 30.2553 23.8865 28.8589 26.3722 26.3732C28.8579 23.8874 30.2543 20.5161 30.2543 17.0008H33.1998C33.1998 25.955 25.954 33.2008 16.9998 33.2008C11.5213 33.2008 6.67599 30.4762 3.74526 26.3231V30.2553ZM0.799805 17.0008C0.799805 8.0466 8.04562 0.800781 16.9998 0.800781C22.4783 0.800781 27.3236 3.52533 30.2543 7.67842V3.74624H33.1998V12.5826H24.3634V9.63714H28.0158C25.6447 6.08787 21.5947 3.74624 16.9998 3.74624C13.4845 3.74624 10.1131 5.14269 7.62743 7.6284C5.14172 10.1141 3.74526 13.4855 3.74526 17.0008H0.799805Z" fill="#A3C4C1"/>
<path d="M14.4227 12.8769C14.4227 14.2612 15.6893 14.8061 18.3107 15.675C21.8453 16.8974 22.7436 18.6941 22.7436 20.7412C22.7436 24.6145 19.0618 25.3509 18.4727 25.4834V27.3096H15.5273V25.4098C14.6142 25.1447 12.1842 24.2758 11.2563 21.0505L13.7011 20.0638C13.7894 20.3878 14.5553 23.1418 17.2356 23.1418C18.6053 23.1418 20.1516 22.4349 20.1516 20.7707C20.1516 19.3569 19.1207 18.6058 16.7938 17.781C15.1738 17.192 11.8602 16.2494 11.8602 12.9063C11.8602 12.759 11.8749 9.37177 15.5273 8.54704V6.69141H18.4727V8.51759C21.0058 8.98886 21.9925 11.1538 22.2134 11.8165L19.8865 12.8032C19.7245 12.2878 19.0176 10.8298 17.0883 10.8298C16.0574 10.8298 14.4227 11.3747 14.4227 12.8769Z" fill="#A3C4C1"/>
</svg>
