<svg width="30" height="31" viewBox="0 0 30 31" fill="none" xmlns="http://www.w3.org/2000/svg">
<path d="M27.2534 5.73309L13.4262 0.706136C12.9621 0.536468 12.4638 0.48136 11.9738 0.545494C11.4839 0.609628 11.0166 0.791108 10.6118 1.07451C10.207 1.35792 9.87655 1.73486 9.64862 2.17332C9.42069 2.61178 9.30199 3.09878 9.3026 3.59295V13.0093C8.3729 12.4553 7.31208 12.1599 6.22989 12.1535C2.84069 12.1535 0.0844727 14.9097 0.0844727 18.2989C0.0844727 21.6881 2.84069 24.4443 6.22989 24.4443C9.61909 24.4443 12.3753 21.6881 12.3753 18.2989V3.59295L26.2025 8.6199V19.1531C25.2724 18.6004 24.2117 18.3055 23.1298 18.2989C19.7406 18.2989 16.9844 21.0551 16.9844 24.4443C16.9844 27.8335 19.7406 30.5898 23.1298 30.5898C26.519 30.5898 29.2752 27.8335 29.2752 24.4443V8.6199C29.2752 7.33243 28.4625 6.17095 27.2534 5.73309ZM6.22989 21.3716C4.53529 21.3716 3.15718 19.9935 3.15718 18.2989C3.15718 16.6043 4.53529 15.2262 6.22989 15.2262C7.92449 15.2262 9.3026 16.6043 9.3026 18.2989C9.3026 19.9935 7.92449 21.3716 6.22989 21.3716ZM23.1298 27.5171C21.4352 27.5171 20.0571 26.1389 20.0571 24.4443C20.0571 22.7497 21.4352 21.3716 23.1298 21.3716C24.8244 21.3716 26.2025 22.7497 26.2025 24.4443C26.2025 26.1389 24.8244 27.5171 23.1298 27.5171Z" fill="white"/>
</svg>
