<svg width="32" height="34" viewBox="0 0 32 34" fill="none" xmlns="http://www.w3.org/2000/svg">
<path d="M13.5703 0.800781L25.3931 4.49438C25.7228 4.59732 26.011 4.80296 26.2156 5.08129C26.4202 5.35961 26.5305 5.69605 26.5303 6.04148V8.90078H29.7703C30.2 8.90078 30.6121 9.07146 30.9159 9.37527C31.2197 9.67908 31.3903 10.0911 31.3903 10.5208V23.4808C31.3903 23.9104 31.2197 24.3225 30.9159 24.6263C30.6121 24.9301 30.2 25.1008 29.7703 25.1008L24.5539 25.1024C23.927 25.9286 23.1656 26.6576 22.2859 27.257L13.5703 33.2008L4.85475 27.2586C3.54664 26.3667 2.47619 25.1688 1.73648 23.769C0.996767 22.3692 0.610188 20.8099 0.610352 19.2267V6.04148C0.610547 5.69633 0.720976 5.36026 0.925542 5.08225C1.13011 4.80425 1.41812 4.59886 1.74759 4.496L13.5703 0.800781ZM13.5703 4.19306L3.85035 7.23218V19.2267C3.85012 20.2185 4.07756 21.1971 4.51514 22.0872C4.95273 22.9772 5.58878 23.7549 6.37431 24.3604L6.68049 24.5808L13.5703 29.2804L19.6972 25.1008H11.9503C11.5207 25.1008 11.1086 24.9301 10.8048 24.6263C10.501 24.3225 10.3303 23.9104 10.3303 23.4808V10.5208C10.3303 10.0911 10.501 9.67908 10.8048 9.37527C11.1086 9.07146 11.5207 8.90078 11.9503 8.90078H23.2903V7.23218L13.5703 4.19306ZM13.5703 17.0008V21.8608H28.1503V17.0008H13.5703ZM13.5703 13.7608H28.1503V12.1408H13.5703V13.7608Z" fill="#A3C4C1"/>
</svg>
