<svg width="34" height="34" viewBox="0 0 34 34" fill="none" xmlns="http://www.w3.org/2000/svg">
<path fill-rule="evenodd" clip-rule="evenodd" d="M27.5122 1.17268C29.0102 0.711748 30.688 0.609061 32.0122 1.27115C32.3228 1.42645 32.5746 1.67831 32.7299 1.98891C33.392 3.31309 33.2893 4.99083 32.8284 6.48887C32.3494 8.04571 31.4087 9.67695 30.0219 11.0638L25.0256 16.0601L27.7262 28.3628L26.1586 28.7069L27.7323 28.3921C28.0367 29.9139 27.3559 31.1392 26.3191 31.9168C26.2063 32.0013 26.083 32.0707 25.9522 32.123L25.1497 32.444C23.8152 32.9778 22.1854 32.7716 21.1832 31.4353C21.164 31.4097 21.1455 31.3835 21.1279 31.3568L16.3989 24.1957L13.6399 26.035V29.9909C13.6399 30.4165 13.4708 30.8248 13.1698 31.1257L11.5649 32.7307C11.2249 33.0707 10.7504 33.2403 10.2719 33.193C9.79338 33.1456 9.36134 32.8862 9.09462 32.4861L6.06277 27.9383L1.51499 24.9065C1.11491 24.6397 0.855493 24.2077 0.808113 23.7292C0.760732 23.2507 0.930381 22.7762 1.27038 22.4362L2.87533 20.8312C3.17632 20.5302 3.58455 20.3611 4.01021 20.3611H7.96612L9.80541 17.6022L2.64429 12.8732C2.61757 12.8555 2.59137 12.8371 2.56575 12.8179C1.22945 11.8156 1.02329 10.1859 1.55707 8.8514C1.58886 8.77193 1.62696 8.69512 1.671 8.62173L2.12571 7.86387C2.80391 6.57494 4.1689 5.98072 5.60893 6.26873L5.63828 6.27489L17.941 8.97548L22.9372 3.97922C24.3241 2.59234 25.9554 1.65171 27.5122 1.17268ZM24.5868 29.032L21.702 15.8904C21.5847 15.3559 21.7478 14.7984 22.1348 14.4114L27.7521 8.79408C28.7727 7.77353 29.437 6.5961 29.7604 5.54489C29.9577 4.90362 30.0068 4.38928 29.986 4.01511C29.6118 3.99428 29.0975 4.04333 28.4562 4.24064C27.405 4.5641 26.2275 5.22842 25.207 6.24897L19.5897 11.8663C19.2027 12.2533 18.6452 12.4164 18.1107 12.2991L4.96909 9.41432C4.95828 9.41234 4.94852 9.41084 4.93977 9.40972C4.92861 9.4303 4.91701 9.45065 4.90496 9.47073L4.50731 10.1335C4.49258 10.1896 4.49113 10.2271 4.49197 10.2467L12.9194 15.812C13.2756 16.0472 13.5234 16.4146 13.6081 16.833C13.6927 17.2514 13.6072 17.6863 13.3704 18.0415L10.1605 22.8564C9.8628 23.3029 9.36169 23.5711 8.82507 23.5711H5.29862L8.11038 25.4456C8.28669 25.5631 8.43798 25.7144 8.55552 25.8907L10.43 28.7024V25.176C10.43 24.6394 10.6982 24.1383 11.1447 23.8406L15.9596 20.6307C16.3147 20.3939 16.7496 20.3084 17.168 20.393C17.5864 20.4776 17.9539 20.7255 18.1891 21.0817L23.7544 29.5091C23.7831 29.5103 23.8501 29.5067 23.9575 29.4637L24.5195 29.2389C24.5685 29.1875 24.5843 29.155 24.5879 29.1469C24.5909 29.1401 24.5927 29.1341 24.5937 29.1234C24.5948 29.1124 24.5962 29.0836 24.5868 29.032Z" fill="#A3C4C1"/>
</svg>
