<svg width="34" height="34" viewBox="0 0 34 34" fill="none" xmlns="http://www.w3.org/2000/svg">
<path d="M30.2548 11.1088C31.036 11.1088 31.7853 11.4191 32.3377 11.9715C32.8901 12.5239 33.2004 13.2732 33.2004 14.0544V19.9456C33.2004 20.7268 32.8901 21.476 32.3377 22.0284C31.7853 22.5808 31.036 22.8912 30.2548 22.8912H28.6907C28.3316 25.7385 26.9458 28.357 24.7933 30.2552C22.6408 32.1533 19.8695 33.2007 16.9996 33.2008V30.2552C19.3433 30.2552 21.591 29.3242 23.2482 27.6669C24.9054 26.0097 25.8364 23.762 25.8364 21.4184V12.5816C25.8364 10.2379 24.9054 7.99025 23.2482 6.33303C21.591 4.67581 19.3433 3.74479 16.9996 3.74479C14.656 3.74479 12.4083 4.67581 10.7511 6.33303C9.09384 7.99025 8.16282 10.2379 8.16282 12.5816V22.8912H3.74443C2.9632 22.8912 2.21398 22.5808 1.66157 22.0284C1.10917 21.476 0.798828 20.7268 0.798828 19.9456V14.0544C0.798828 13.2732 1.10917 12.5239 1.66157 11.9715C2.21398 11.4191 2.9632 11.1088 3.74443 11.1088H5.30854C5.66795 8.26172 7.05392 5.64363 9.20641 3.74579C11.3589 1.84795 14.1299 0.800781 16.9996 0.800781C19.8693 0.800781 22.6403 1.84795 24.7928 3.74579C26.9453 5.64363 28.3313 8.26172 28.6907 11.1088H30.2548Z" fill="#A3C4C1"/>
</svg>
