<svg width="21" height="21" viewBox="0 0 21 21" fill="none" xmlns="http://www.w3.org/2000/svg">
<g opacity="0.3">
<path d="M10.2333 20.9999C15.7002 20.9999 20.1321 16.5227 20.1321 10.9999C20.1321 5.47712 15.7002 1 10.2333 1C4.76632 1 0.334473 5.47712 0.334473 10.9999C0.334473 16.5227 4.76632 20.9999 10.2333 20.9999Z" fill="white"/>
<path d="M10.2343 20.8923C15.6419 20.8923 20.0257 16.4637 20.0257 11.0008C20.0257 5.53793 15.6419 1.10938 10.2343 1.10938C4.82663 1.10938 0.442871 5.53793 0.442871 11.0008C0.442871 16.4637 4.82663 20.8923 10.2343 20.8923Z" stroke="#0E0D0D"/>
</g>
<path d="M10.2317 20.9997C8.39177 21.0026 6.58824 20.4854 5.02441 19.5061L11.6556 1.10156C12.8292 1.27204 13.9634 1.65561 15.0018 2.23387C18.1678 3.98996 20.1344 7.35007 20.1305 10.9988C20.1305 11.6759 20.0634 12.351 19.9292 13.0145C19.6703 14.294 19.164 15.5087 18.4401 16.5906C17.3653 18.1985 15.8533 19.4567 14.0852 20.2132C13.4859 20.4689 12.8637 20.6646 12.227 20.7963C11.5702 20.9319 10.9019 20.9997 10.2317 20.9997Z" fill="#6E7BF2"/>
<path d="M6.87486 10.9568C6.87773 10.7883 6.86048 10.6207 6.82404 10.457H4.5459V11.3666H5.88344C5.83263 11.6891 5.65333 11.9758 5.3887 12.1618L5.3839 12.1918L6.10397 12.7555L6.15383 12.7604C6.63611 12.2896 6.89883 11.6349 6.87678 10.9578" fill="#4285F4"/>
<path d="M4.54556 13.354C5.13619 13.3704 5.71148 13.1583 6.15254 12.7602L5.38644 12.1606C5.13811 12.3292 4.84375 12.4144 4.54556 12.4057C3.91658 12.4018 3.36047 11.9921 3.16487 11.3867L3.13611 11.3887L2.38727 11.9747L2.37769 12.0018C2.78902 12.8309 3.62798 13.354 4.54556 13.354Z" fill="#34A853"/>
<path d="M3.16937 11.3853C3.11664 11.2294 3.08883 11.0657 3.08883 10.901C3.08979 10.7364 3.11664 10.5727 3.16746 10.4167L3.1665 10.3848L2.40808 9.78906L2.38315 9.80069C2.03797 10.4932 2.03797 11.3088 2.38315 12.0014L3.16937 11.3853Z" fill="#FBBC05"/>
<path d="M4.54556 9.40062C4.89361 9.39481 5.2292 9.52557 5.48424 9.76578L6.16884 9.09066C5.7297 8.67416 5.1477 8.44557 4.54556 8.45332C3.62798 8.45332 2.78902 8.9754 2.37769 9.80453L3.162 10.4206C3.35951 9.81518 3.91562 9.40546 4.54556 9.40062Z" fill="#EB4335"/>
<path d="M10.6922 11.1741V12.9554H10.1284V8.555H11.6232C11.9837 8.54725 12.3318 8.68383 12.5916 8.93566C13.1007 9.40931 13.1333 10.2113 12.6635 10.7257C12.6405 10.7508 12.6165 10.7751 12.5916 10.7983C12.3308 11.0482 11.9828 11.1828 11.6232 11.1732H10.6922V11.1741ZM10.6922 9.09742V10.6336H11.6376C11.8466 10.6404 12.0489 10.5571 12.1947 10.406C12.489 10.1203 12.4976 9.64856 12.2148 9.3512C12.2129 9.34926 12.211 9.34732 12.209 9.34539C12.2042 9.34054 12.1995 9.33473 12.1947 9.33086C12.0499 9.17685 11.8476 9.09161 11.6376 9.09742H10.6922ZM14.2945 9.84713C14.654 9.82679 15.0069 9.94689 15.2811 10.1813C15.5285 10.4196 15.6598 10.7547 15.6426 11.0995V12.9554H15.1047V12.537H15.0807C14.8813 12.8624 14.5275 13.0581 14.1487 13.0532C13.8457 13.0629 13.5495 12.9573 13.3194 12.7578C13.1036 12.5757 12.9809 12.3045 12.9857 12.0207C12.9761 11.7301 13.1075 11.4521 13.3376 11.2778C13.6108 11.0811 13.9416 10.9833 14.2772 11.0007C14.5639 10.9901 14.8487 11.053 15.1037 11.1848V11.054C15.1047 10.8603 15.0193 10.6763 14.8707 10.5542C14.7211 10.4196 14.5275 10.346 14.3261 10.3479C14.025 10.3411 13.7422 10.4922 13.5792 10.747L13.0844 10.4331C13.3606 10.0379 13.8179 9.81516 14.2954 9.84422L14.2945 9.84713ZM13.5648 12.0342C13.5638 12.1805 13.6338 12.319 13.7518 12.4043C13.8764 12.5031 14.0317 12.5544 14.19 12.5515C14.4277 12.5515 14.655 12.4566 14.8247 12.2871C15.0021 12.1311 15.1047 11.9045 15.1047 11.6662C14.8899 11.5141 14.631 11.4395 14.3693 11.455C14.166 11.4473 13.9646 11.5054 13.7968 11.6216C13.654 11.7107 13.5677 11.8667 13.5648 12.0342ZM18.7366 9.94496L16.8555 14.2834H16.2744L16.9724 12.7656L15.7346 9.94496H16.3473L17.2419 12.1079H17.2543L18.124 9.94496H18.7366Z" fill="white"/>
</svg>
