<svg width="21" height="16" viewBox="0 0 21 16" fill="none" xmlns="http://www.w3.org/2000/svg">
<path d="M19.728 15.1226V15.162H19.7649C19.7719 15.1621 19.7787 15.1603 19.7847 15.1569C19.7871 15.1553 19.7891 15.153 19.7904 15.1503C19.7917 15.1477 19.7923 15.1448 19.7921 15.1419C19.7923 15.139 19.7916 15.1361 19.7903 15.1336C19.7891 15.131 19.7871 15.1288 19.7847 15.1272C19.7788 15.1236 19.7719 15.1219 19.7649 15.1222H19.728V15.1226ZM19.7653 15.0947C19.7811 15.0937 19.7968 15.0982 19.8097 15.1075C19.8148 15.1117 19.8189 15.117 19.8216 15.1231C19.8243 15.1291 19.8255 15.1357 19.8252 15.1424C19.8254 15.1481 19.8244 15.1537 19.8223 15.159C19.8201 15.1643 19.8169 15.1691 19.8127 15.173C19.8028 15.1816 19.7904 15.1867 19.7773 15.1877L19.8268 15.2438H19.7887L19.7431 15.1881H19.7284V15.2438H19.6965V15.0948H19.7658L19.7653 15.0947ZM19.7554 15.2953C19.7721 15.2954 19.7887 15.2921 19.804 15.2854C19.8188 15.2791 19.8322 15.27 19.8436 15.2587C19.855 15.2474 19.8641 15.234 19.8704 15.2193C19.8834 15.1881 19.8834 15.153 19.8704 15.1218C19.864 15.1071 19.8549 15.0937 19.8436 15.0824C19.8322 15.0711 19.8188 15.062 19.804 15.0557C19.7886 15.0494 19.7721 15.0462 19.7554 15.0464C19.7385 15.0462 19.7217 15.0494 19.7059 15.0557C19.6908 15.0619 19.6771 15.0709 19.6655 15.0824C19.6479 15.1002 19.6361 15.1228 19.6314 15.1474C19.6267 15.1719 19.6294 15.1973 19.639 15.2203C19.6451 15.2351 19.654 15.2485 19.6655 15.2597C19.6771 15.2711 19.6908 15.2802 19.7059 15.2864C19.7216 15.2931 19.7384 15.2964 19.7554 15.2963M19.7554 15.0105C19.7989 15.0105 19.8407 15.0275 19.8717 15.0578C19.8867 15.0724 19.8986 15.0898 19.9068 15.109C19.9152 15.1287 19.9196 15.1499 19.9196 15.1713C19.9196 15.1927 19.9152 15.2139 19.9068 15.2336C19.8984 15.2527 19.8865 15.27 19.8717 15.2847C19.8565 15.2992 19.8389 15.3109 19.8196 15.3192C19.7993 15.3278 19.7775 15.3322 19.7554 15.332C19.7331 15.3322 19.711 15.3278 19.6905 15.3192C19.671 15.3111 19.6531 15.2994 19.6379 15.2847C19.6231 15.2695 19.6114 15.2516 19.6034 15.2319C19.5949 15.2122 19.5906 15.191 19.5906 15.1696C19.5906 15.1482 19.5949 15.127 19.6034 15.1073C19.6116 15.0881 19.6235 15.0707 19.6384 15.0561C19.6534 15.0412 19.6713 15.0295 19.691 15.0217C19.7115 15.0131 19.7336 15.0087 19.7559 15.0089M4.60025 14.4348C4.60025 14.1506 4.78731 13.917 5.09305 13.917C5.38522 13.917 5.58238 14.1405 5.58238 14.4348C5.58238 14.7291 5.38522 14.9526 5.09305 14.9526C4.78731 14.9526 4.60025 14.7191 4.60025 14.4348ZM5.91544 14.4348V13.6259H5.56219V13.8229C5.45015 13.6773 5.28021 13.586 5.0491 13.586C4.59381 13.586 4.23651 13.9415 4.23651 14.4352C4.23651 14.9289 4.59361 15.2844 5.0491 15.2844C5.28011 15.2844 5.45015 15.193 5.56219 15.0475V15.2438H5.91504V14.4348H5.91544ZM17.8511 14.4348C17.8511 14.1506 18.0382 13.917 18.344 13.917C18.6365 13.917 18.8334 14.1405 18.8334 14.4348C18.8334 14.7291 18.6365 14.9526 18.344 14.9526C18.0383 14.9526 17.8511 14.7191 17.8511 14.4348ZM19.1667 14.4348V12.9766H18.8132V13.8229C18.7011 13.6773 18.5312 13.586 18.3001 13.586C17.8448 13.586 17.4875 13.9415 17.4875 14.4352C17.4875 14.9289 17.8446 15.2844 18.3001 15.2844C18.5312 15.2844 18.7011 15.193 18.8132 15.0475V15.2438H19.1667V14.4348ZM10.2997 13.9004C10.5273 13.9004 10.6735 14.0425 10.7108 14.2926H9.86794C9.90565 14.0591 10.0481 13.9004 10.2998 13.9004M10.3068 13.5851C9.83072 13.5851 9.49767 13.9299 9.49767 14.4343C9.49767 14.9486 9.84408 15.2836 10.3304 15.2836C10.5751 15.2836 10.7992 15.2228 10.9964 15.0569L10.8232 14.7963C10.6871 14.9047 10.5137 14.9655 10.3506 14.9655C10.123 14.9655 9.91574 14.8606 9.86477 14.5694H11.071C11.0745 14.5257 11.078 14.4815 11.078 14.4342C11.0745 13.93 10.7613 13.585 10.3066 13.585M14.5715 14.4342C14.5715 14.15 14.7585 13.9164 15.0643 13.9164C15.3564 13.9164 15.5536 14.1399 15.5536 14.4342C15.5536 14.7285 15.3564 14.952 15.0643 14.952C14.7585 14.952 14.5714 14.7185 14.5714 14.4342M15.8866 14.4342V13.6259H15.5335V13.8229C15.4211 13.6773 15.2515 13.586 15.0204 13.586C14.5651 13.586 14.2078 13.9415 14.2078 14.4352C14.2078 14.9289 14.5649 15.2844 15.0204 15.2844C15.2515 15.2844 15.4211 15.193 15.5335 15.0475V15.2438H15.8867V14.4348L15.8866 14.4342ZM12.5766 14.4342C12.5766 14.9248 12.9197 15.2835 13.4432 15.2835C13.6879 15.2835 13.8509 15.2293 14.0272 15.0906L13.8576 14.8064C13.7249 14.9013 13.5857 14.952 13.432 14.952C13.15 14.9486 12.9426 14.7456 12.9426 14.4342C12.9426 14.1229 13.15 13.92 13.432 13.9164C13.5853 13.9164 13.7245 13.9672 13.8576 14.0621L14.0272 13.7778C13.8506 13.6392 13.6876 13.585 13.4432 13.585C12.9197 13.585 12.5766 13.9435 12.5766 14.4342ZM17.1305 13.585C16.9267 13.585 16.794 13.6799 16.7022 13.822V13.6259H16.3521V15.243H16.7058V14.3365C16.7058 14.0689 16.8213 13.9202 17.0522 13.9202C17.1278 13.9191 17.2029 13.9329 17.2731 13.9609L17.382 13.6294C17.3038 13.5988 17.2018 13.5853 17.1303 13.5853M7.66186 13.7545C7.49192 13.6429 7.25775 13.5853 6.99942 13.5853C6.58788 13.5853 6.32292 13.7817 6.32292 14.103C6.32292 14.3666 6.52018 14.5293 6.88342 14.58L7.05029 14.6037C7.24399 14.6308 7.33544 14.6815 7.33544 14.7729C7.33544 14.8979 7.20677 14.9692 6.96517 14.9692C6.7205 14.9692 6.54393 14.8914 6.42486 14.8001L6.25888 15.0743C6.45258 15.2164 6.69725 15.2841 6.9622 15.2841C7.43135 15.2841 7.70324 15.0642 7.70324 14.7563C7.70324 14.4721 7.48925 14.3234 7.13571 14.2726L6.96923 14.2486C6.81631 14.2289 6.69378 14.1982 6.69378 14.0899C6.69378 13.9716 6.80929 13.9005 7.00308 13.9005C7.21044 13.9005 7.41116 13.9783 7.50954 14.0391L7.66246 13.7549L7.66186 13.7545ZM12.2198 13.5856C12.016 13.5856 11.8833 13.6805 11.7919 13.8225V13.6259H11.4418V15.243H11.7951V14.3365C11.7951 14.0689 11.9106 13.9202 12.1415 13.9202C12.2171 13.9191 12.2922 13.9329 12.3624 13.9609L12.4713 13.6294C12.3931 13.5988 12.2912 13.5853 12.2196 13.5853M9.20539 13.6259H8.62777V13.1353H8.27066V13.6259H7.94117V13.9473H8.27066V14.685C8.27066 15.0602 8.41695 15.2837 8.83483 15.2837C8.98814 15.2837 9.16471 15.2364 9.27675 15.1586L9.17471 14.8575C9.0693 14.9183 8.95379 14.9489 8.86195 14.9489C8.68537 14.9489 8.62777 14.8406 8.62777 14.6783V13.9476H9.20539V13.6259ZM3.92414 15.2434V14.2285C3.92414 13.8463 3.67947 13.5891 3.28505 13.5857C3.0777 13.5822 2.86381 13.6465 2.71406 13.8734C2.60202 13.6941 2.42545 13.5857 2.17722 13.5857C2.00371 13.5857 1.83417 13.6364 1.70144 13.8258V13.6259H1.3479V15.243H1.70421V14.3463C1.70421 14.0656 1.8606 13.9164 2.1021 13.9164C2.33667 13.9164 2.45534 14.0687 2.45534 14.3428V15.2428H2.81245V14.3461C2.81245 14.0654 2.97546 13.9162 3.20993 13.9162C3.45114 13.9162 3.56625 14.0685 3.56625 14.3426V15.2426L3.92414 15.2434Z" fill="#231F20"/>
<path d="M12.8993 10.8779H7.54614V1.30078H12.8994L12.8993 10.8779Z" fill="#FF5F00"/>
<path d="M7.88475 6.09087C7.88475 4.14814 8.79849 2.41755 10.2214 1.30228C9.14433 0.456841 7.81219 -0.00201088 6.44059 6.62467e-06C3.06186 6.62467e-06 0.322998 2.72694 0.322998 6.09087C0.322998 9.4548 3.06186 12.1817 6.44059 12.1817C7.81222 12.1838 9.1444 11.7249 10.2215 10.8795C8.79869 9.76438 7.88475 8.03369 7.88475 6.09087Z" fill="#EB001B"/>
<path d="M20.1209 6.09087C20.1209 9.4548 17.382 12.1817 14.0033 12.1817C12.6315 12.1837 11.2992 11.7249 10.2219 10.8795C11.6452 9.76418 12.5589 8.03369 12.5589 6.09087C12.5589 4.14804 11.6452 2.41755 10.2219 1.30228C11.2992 0.456866 12.6315 -0.00197552 14.0032 6.3936e-06C17.3819 6.3936e-06 20.1208 2.72694 20.1208 6.09087" fill="#F79E1B"/>
</svg>
