<svg width="21" height="7" viewBox="0 0 21 7" fill="none" xmlns="http://www.w3.org/2000/svg">
<path d="M20.0138 1.84254C19.8342 1.3253 19.3443 0.953877 18.7692 0.953877H18.7571C18.3832 0.953877 18.0461 1.11053 17.8062 1.36206C17.566 1.11053 17.2289 0.953877 16.8554 0.953877H16.8433C16.5146 0.953877 16.2141 1.07506 15.9834 1.27556V1.17359C15.9754 1.07203 15.8924 0.992224 15.79 0.992224H14.9076C14.7996 0.992224 14.7125 1.08 14.7125 1.18898V6.01266C14.7125 6.12172 14.7997 6.20941 14.9076 6.20941H15.79C15.8883 6.20941 15.9693 6.13543 15.9822 6.03976L15.9818 2.57694C15.9818 2.56483 15.9822 2.55358 15.9834 2.54226C15.9975 2.38768 16.11 2.26069 16.2877 2.24474H16.4504C16.5246 2.25144 16.5874 2.27775 16.6367 2.31745C16.7135 2.37883 16.7562 2.4733 16.7562 2.57694L16.7595 6.0227C16.7595 6.13176 16.8471 6.21993 16.9546 6.21993H17.837C17.9411 6.21993 18.0258 6.13638 18.0308 6.03235L18.0304 2.5724C18.03 2.45872 18.0823 2.35595 18.174 2.29497C18.2192 2.26571 18.2736 2.2461 18.3363 2.2402H18.4989C18.6899 2.25694 18.8053 2.40275 18.8049 2.5724L18.8082 6.01353C18.8082 6.12259 18.8958 6.21029 19.0032 6.21029H19.8856C19.9931 6.21029 20.0807 6.12251 20.0807 6.01353V2.31258C20.0807 2.06018 20.0525 1.9528 20.0138 1.84254ZM14.0403 1.00482H13.5356V0.179216C13.5356 0.0802006 13.4559 0 13.3575 0C13.3459 0 13.3347 0.00167417 13.3239 0.00374695C12.7644 0.158328 12.8764 0.938411 11.8551 1.00482H11.7558C11.7409 1.00482 11.7268 1.00689 11.7131 1.00984H11.7123L11.7131 1.01024C11.6259 1.02985 11.5603 1.10758 11.5603 1.20118V2.08952C11.5603 2.1977 11.6479 2.28588 11.7558 2.28588H12.2883L12.2875 6.05252C12.2875 6.1599 12.3738 6.2468 12.4805 6.2468H13.3529C13.4591 6.2468 13.5455 6.1599 13.5455 6.05252L13.5458 2.28588H14.0402C14.1476 2.28588 14.2352 2.1977 14.2352 2.08952V1.20126C14.2354 1.09299 14.1478 1.00482 14.0403 1.00482Z" fill="#54C1F0"/>
<path d="M10.8653 1.00407H9.9829C9.87544 1.00407 9.78824 1.09224 9.78824 1.20042V3.03714C9.78619 3.15083 9.69487 3.24187 9.58155 3.24187H9.21219C9.09767 3.24187 9.0051 3.14915 9.0051 3.0338L9.00177 1.20042C9.00177 1.09224 8.91418 1.00407 8.80672 1.00407H7.92426C7.81632 1.00407 7.72921 1.09224 7.72921 1.20042V3.21349C7.72921 3.97811 8.27081 4.52333 9.03076 4.52333C9.03076 4.52333 9.60103 4.52333 9.61845 4.52668C9.7214 4.53839 9.80147 4.62529 9.80147 4.73228C9.80147 4.83799 9.72299 4.92449 9.6213 4.9374C9.61631 4.9382 9.61172 4.93948 9.60634 4.94035L8.31595 4.94498C8.20801 4.94498 8.1209 5.03315 8.1209 5.14133V6.0292C8.1209 6.13786 8.20809 6.22556 8.31595 6.22556H9.75863C10.519 6.22556 11.0602 5.68074 11.0602 4.91572V1.2005C11.0603 1.09224 10.9732 1.00407 10.8653 1.00407ZM2.402 1.00391H0.473315C0.367512 1.00391 0.281982 1.09033 0.281982 1.19652V2.06684C0.281982 2.06852 0.282378 2.07019 0.282378 2.07187C0.282378 2.07601 0.281982 2.08024 0.281982 2.08398V6.02306C0.281982 6.13005 0.361651 6.21735 0.460485 6.21982H1.35949C1.46696 6.21982 1.55455 6.13204 1.55455 6.02346L1.55787 4.67352H2.40208C3.10849 4.67352 3.60076 4.18012 3.60076 3.46605V2.21305C3.60068 1.49898 3.10841 1.00391 2.402 1.00391ZM2.32439 3.17985C2.32439 3.29473 2.23181 3.38832 2.11769 3.38832L1.55779 3.38872V2.29031H2.11769C2.23181 2.29031 2.32439 2.38302 2.32439 2.49838V3.17985ZM5.84527 1.00893H4.62093C4.51259 1.00893 4.425 1.09168 4.425 1.19317V1.53868C4.425 1.54076 4.4254 1.54331 4.4254 1.54538C4.4254 1.54785 4.425 1.5504 4.425 1.55287V2.02627C4.425 2.13365 4.51798 2.22135 4.63249 2.22135H5.79838C5.89049 2.23593 5.96358 2.30362 5.97396 2.40933V2.52381C5.96358 2.6245 5.89136 2.69801 5.80337 2.70638H5.22605C4.45819 2.70638 3.9112 3.21987 3.9112 3.94104V4.97384C3.9112 5.69078 4.38145 6.20092 5.14385 6.20092H6.74388C7.03111 6.20092 7.26394 5.98201 7.26394 5.71246V2.3422C7.26394 1.52497 6.84556 1.00893 5.84527 1.00893ZM5.9856 4.85577C5.9856 4.86709 5.98393 4.87793 5.98227 4.88838C5.98019 4.89818 5.97741 4.90783 5.97396 4.91724C5.94655 4.99496 5.86934 5.05133 5.77763 5.05133H5.41033C5.29582 5.05133 5.20237 4.96355 5.20237 4.85577V4.68819C5.20237 4.68612 5.20197 4.68405 5.20197 4.68189L5.20237 4.23609V4.09657L5.20277 4.0953C5.20316 3.98791 5.29574 3.90101 5.41025 3.90101H5.77755C5.89254 3.90101 5.98552 3.98831 5.98552 4.09657V4.85577H5.9856Z" fill="#233266"/>
</svg>
