<svg width="22" height="21" viewBox="0 0 22 21" fill="none" xmlns="http://www.w3.org/2000/svg">
<path d="M19.0734 12.5114C20.1663 7.8181 17.3003 3.11503 12.672 2.00679C8.04369 0.89855 3.40573 3.80482 2.31284 8.49812C1.21995 13.1914 4.08597 17.8945 8.71428 19.0027C13.3426 20.111 17.9806 17.2047 19.0734 12.5114Z" fill="#5F259F"/>
<path d="M14.5999 8.22415C14.5999 7.88275 14.3114 7.58987 13.9744 7.58987H12.82L10.1745 4.5167C9.93382 4.22411 9.54901 4.12649 9.1642 4.22411L8.25017 4.5167C8.10605 4.56551 8.05763 4.76076 8.1539 4.8581L11.0404 7.63868H6.6628C6.51839 7.63868 6.42212 7.73631 6.42212 7.88275V8.37029C6.42212 8.71198 6.71094 9.00457 7.04761 9.00457H7.72096V11.3458C7.72096 13.1022 8.63498 14.1264 10.1745 14.1264C10.6553 14.1264 11.0404 14.0776 11.5212 13.8827V15.4435C11.5199 15.5464 11.5389 15.6484 11.5771 15.7437C11.6153 15.839 11.6719 15.9256 11.7437 15.9983C11.8154 16.0711 11.9008 16.1285 11.9947 16.1672C12.0887 16.206 12.1894 16.2253 12.2908 16.2239H12.9644C13.1086 16.2239 13.253 16.0778 13.253 15.9316V8.95576H14.3595C14.5037 8.95576 14.5999 8.85813 14.5999 8.71198V8.22415ZM11.5215 12.4191C11.2327 12.5653 10.8478 12.6144 10.5593 12.6144C9.78969 12.6144 9.4046 12.2242 9.4046 11.3458V9.00457H11.5212L11.5215 12.4191Z" fill="white"/>
</svg>
