<svg width="17" height="12" viewBox="0 0 17 12" fill="none" xmlns="http://www.w3.org/2000/svg">
<path fill-rule="evenodd" clip-rule="evenodd" d="M15.8886 0.698901C16.1363 0.979854 16.1517 1.45435 15.9231 1.75871L8.78815 11.2587C8.67551 11.4087 8.518 11.4958 8.35196 11.4999C8.18592 11.5039 8.02569 11.4247 7.90826 11.2803L4.93537 7.62649C4.69706 7.33359 4.69706 6.85872 4.93537 6.56583C5.17367 6.27293 5.56005 6.27293 5.79836 6.56583L8.32215 9.66771L15.0263 0.741294C15.2549 0.436928 15.641 0.417948 15.8886 0.698901ZM11.1496 0.719674C11.3879 1.01257 11.3879 1.48744 11.1496 1.78033L8.17667 5.43418C7.93837 5.72707 7.55199 5.72707 7.31368 5.43418C7.07538 5.14129 7.07538 4.66641 7.31368 4.37352L10.2866 0.719674C10.5249 0.42678 10.9113 0.42678 11.1496 0.719674ZM0.178731 6.56583C0.417039 6.27293 0.803413 6.27293 1.04172 6.56583L4.01462 10.2197C4.25293 10.5126 4.25293 10.9874 4.01462 11.2803C3.77631 11.5732 3.38994 11.5732 3.15163 11.2803L0.178731 7.62649C-0.059577 7.33359 -0.059577 6.85872 0.178731 6.56583Z" fill="#51C429"/>
</svg>
