<svg width="29" height="24" viewBox="0 0 29 24" fill="none" xmlns="http://www.w3.org/2000/svg">
<path d="M21.0723 0C19.7591 0.019926 18.4745 0.377535 17.3483 1.03671C16.2221 1.69589 15.2942 2.6333 14.6582 3.75427C14.0222 2.6333 13.0943 1.69589 11.9681 1.03671C10.8419 0.377535 9.55732 0.019926 8.24412 0C6.15073 0.0887266 4.17842 0.982086 2.75808 2.48491C1.33775 3.98772 0.584838 5.97784 0.663849 8.02048C0.663849 13.1934 6.24526 18.843 10.9264 22.6735C11.9715 23.5303 13.293 24 14.6582 24C16.0234 24 17.3449 23.5303 18.39 22.6735C23.0711 18.843 28.6526 13.1934 28.6526 8.02048C28.7316 5.97784 27.9787 3.98772 26.5583 2.48491C25.138 0.982086 23.1657 0.0887266 21.0723 0ZM16.8915 20.9329C16.2664 21.4464 15.4754 21.728 14.6582 21.728C13.841 21.728 13.05 21.4464 12.4249 20.9329C6.43302 16.0284 2.99624 11.3231 2.99624 8.02048C2.91652 6.58102 3.4235 5.1692 4.4066 4.09295C5.3897 3.01669 6.76916 2.36331 8.24412 2.27531C9.71909 2.36331 11.0986 3.01669 12.0817 4.09295C13.0648 5.1692 13.5717 6.58102 13.492 8.02048C13.492 8.3222 13.6149 8.61157 13.8336 8.82492C14.0523 9.03827 14.3489 9.15813 14.6582 9.15813C14.9675 9.15813 15.2641 9.03827 15.4828 8.82492C15.7015 8.61157 15.8244 8.3222 15.8244 8.02048C15.7447 6.58102 16.2517 5.1692 17.2348 4.09295C18.2179 3.01669 19.5973 2.36331 21.0723 2.27531C22.5472 2.36331 23.9267 3.01669 24.9098 4.09295C25.8929 5.1692 26.3999 6.58102 26.3202 8.02048C26.3202 11.3231 22.8834 16.0284 16.8915 20.9283V20.9329Z" fill="#A5B2BA"/>
</svg>
