<svg width="15" height="14" viewBox="0 0 15 14" fill="none" xmlns="http://www.w3.org/2000/svg">
<path d="M11.25 5.5C12.0456 5.5 12.8087 5.81607 13.3713 6.37868C13.9339 6.94129 14.25 7.70435 14.25 8.5V12.25C14.25 12.6478 14.092 13.0294 13.8107 13.3107C13.5294 13.592 13.1478 13.75 12.75 13.75H2.25C1.85218 13.75 1.47064 13.592 1.18934 13.3107C0.908035 13.0294 0.75 12.6478 0.75 12.25V8.5C0.75 7.70435 1.06607 6.94129 1.62868 6.37868C2.19129 5.81607 2.95435 5.5 3.75 5.5V3.25H5.25V5.5H6.75V3.25H8.25V5.5H9.75V3.25H11.25V5.5ZM3.75 7C3.35218 7 2.97064 7.15804 2.68934 7.43934C2.40804 7.72064 2.25 8.10218 2.25 8.5V9.25H12.75V8.5C12.75 8.10218 12.592 7.72064 12.3107 7.43934C12.0294 7.15804 11.6478 7 11.25 7H3.75ZM2.25 10.75V12.25H12.75V10.75H2.25ZM3.75 1C3.94891 1 4.13968 0.920982 4.28033 0.78033C4.42098 0.639678 4.5 0.448912 4.5 0.25C4.69891 0.25 4.88968 0.329018 5.03033 0.46967C5.17098 0.610322 5.25 0.801088 5.25 1V1.75C5.25 1.94891 5.17098 2.13968 5.03033 2.28033C4.88968 2.42098 4.69891 2.5 4.5 2.5C4.30109 2.5 4.11032 2.42098 3.96967 2.28033C3.82902 2.13968 3.75 1.94891 3.75 1.75V1ZM6.75 1C6.94891 1 7.13968 0.920982 7.28033 0.78033C7.42098 0.639678 7.5 0.448912 7.5 0.25C7.69891 0.25 7.88968 0.329018 8.03033 0.46967C8.17098 0.610322 8.25 0.801088 8.25 1V1.75C8.25 1.94891 8.17098 2.13968 8.03033 2.28033C7.88968 2.42098 7.69891 2.5 7.5 2.5C7.30109 2.5 7.11032 2.42098 6.96967 2.28033C6.82902 2.13968 6.75 1.94891 6.75 1.75V1ZM9.75 1C9.94891 1 10.1397 0.920982 10.2803 0.78033C10.421 0.639678 10.5 0.448912 10.5 0.25C10.6989 0.25 10.8897 0.329018 11.0303 0.46967C11.171 0.610322 11.25 0.801088 11.25 1V1.75C11.25 1.94891 11.171 2.13968 11.0303 2.28033C10.8897 2.42098 10.6989 2.5 10.5 2.5C10.3011 2.5 10.1103 2.42098 9.96967 2.28033C9.82902 2.13968 9.75 1.94891 9.75 1.75V1Z" fill="#031C2C"/>
</svg>
