<svg width="256" height="334" viewBox="0 0 256 334" fill="none" xmlns="http://www.w3.org/2000/svg">
<path fill-rule="evenodd" clip-rule="evenodd" d="M577.218 173.654C545.306 127.091 490.39 107.935 442.828 77.5004C397.655 48.5947 359.816 -1.99722 306.203 0.233703C252.759 2.45771 223.4 62.0219 176.955 88.564C119.82 121.216 25.8066 111.015 3.86416 173.015C-17.8086 234.253 65.8918 282.569 86.5026 344.145C107.511 406.909 77.7871 487.345 124.708 534.045C172.408 581.521 252.978 593.044 317.643 574.198C377.942 556.624 391.484 475.092 444.187 440.934C504.389 401.916 608.085 429.444 640.037 365.248C670.752 303.537 616.169 230.488 577.218 173.654Z" fill="#B3D5D9"/>
</svg>
