<svg width="344" height="250" viewBox="0 0 344 250" fill="none" xmlns="http://www.w3.org/2000/svg">
<path fill-rule="evenodd" clip-rule="evenodd" d="M170.167 177.218C216.73 145.306 235.886 90.3908 266.321 42.8283C295.227 -2.34446 345.819 -40.1839 343.588 -93.7961C341.364 -147.241 281.799 -176.6 255.257 -223.044C222.606 -280.18 232.807 -374.193 170.806 -396.135C109.568 -417.808 61.2527 -334.108 -0.323834 -313.497C-63.088 -292.489 -143.524 -322.212 -190.224 -275.292C-237.7 -227.591 -249.223 -147.022 -230.376 -82.3564C-212.802 -22.0573 -131.27 -8.51562 -97.1123 44.1875C-58.0943 104.389 -85.6229 208.086 -21.4264 240.038C40.2841 270.752 113.334 216.17 170.167 177.218Z" fill="#B3D5D9"/>
</svg>
