<svg width="380" height="249" viewBox="0 0 380 249" fill="none" xmlns="http://www.w3.org/2000/svg">
<path fill-rule="evenodd" clip-rule="evenodd" d="M372.809 -359.874C419.371 -327.963 438.528 -273.047 468.962 -225.485C497.868 -180.312 548.46 -142.472 546.229 -88.8601C544.005 -35.4154 484.441 -6.05638 457.899 40.3881C425.247 97.5234 435.448 191.537 373.448 213.479C312.21 235.152 263.894 151.451 202.318 130.841C139.554 109.832 59.1177 139.556 12.418 92.6356C-35.0581 44.9349 -46.5814 -35.6347 -27.7349 -100.3C-10.1609 -160.599 71.3713 -174.141 105.529 -226.844C144.547 -287.046 117.019 -390.742 181.215 -422.694C242.926 -453.408 315.975 -398.826 372.809 -359.874Z" fill="#B3D5D9"/>
</svg>
